<svg width="98" height="152" viewBox="0 0 98 152" fill="none" xmlns="http://www.w3.org/2000/svg">
<path d="M16.9779 123.341L15.7246 129.535L39.0319 137.315L40.882 128.173L16.9779 123.341Z" fill="#FFB6B6"/>
<path d="M19.3216 122.17L16.853 134.368L16.8529 134.368C16.4355 136.43 15.2158 138.241 13.4622 139.404C11.7085 140.567 9.56453 140.986 7.50177 140.569L7.24902 140.518L11.2909 120.546L19.3216 122.17Z" fill="#2F2E41"/>
<path d="M43.3901 38.0228C52.1304 38.0228 59.2158 30.9413 59.2158 22.2059C59.2158 13.4705 52.1304 6.38904 43.3901 6.38904C34.6499 6.38904 27.5645 13.4705 27.5645 22.2059C27.5645 30.9413 34.6499 38.0228 43.3901 38.0228Z" fill="#FEB8B8"/>
<path d="M58.1716 8.56046C55.8055 4.72046 52.1019 1.89091 47.7736 0.61649L45.8307 2.03348V0.193554C44.7912 0.0345459 43.7391 -0.0267095 42.6882 0.0105953L41.012 1.52639V0.136533C38.5302 0.444762 36.1393 1.26357 33.9899 2.54134C31.8405 3.81911 29.9794 5.52812 28.5238 7.56059C24.8837 12.8053 24.2692 20.102 27.8495 25.3888C28.8322 22.37 30.0252 19.5375 31.0082 16.5191C31.7806 16.6243 32.5635 16.6281 33.337 16.5303L34.5327 13.7418L34.8667 16.4123C38.573 16.0897 44.0703 15.3811 47.5838 14.7319L47.2421 12.6831L49.2862 14.3855C50.3626 14.1379 51.0018 13.9131 50.949 13.7415C53.5622 17.9519 56.7602 20.6411 59.373 24.8515C60.3655 18.9146 61.5078 13.9781 58.1716 8.56046Z" fill="#2F2E41"/>
<path d="M48.5393 125.708C71.0442 125.708 89.288 120.608 89.288 114.317C89.288 108.025 71.0442 102.925 48.5393 102.925C26.0344 102.925 7.79053 108.025 7.79053 114.317C7.79053 120.608 26.0344 125.708 48.5393 125.708Z" fill="#2F2E41"/>
<path d="M77.4271 62.8796C76.8829 59.6075 76.3216 56.2725 74.8 53.3247C73.7999 51.3939 72.2125 49.554 70.0725 49.1722C69.6509 49.1347 69.2367 49.0388 68.8415 48.8874C68.2145 48.5856 59.7883 43.7781 58.449 42.9408C57.2991 42.2219 55.4838 40.891 54.5685 40.891C53.6477 40.8707 50.1169 41.692 36.3359 40.6154C34.0178 41.5453 31.773 42.6484 29.6206 43.9152C29.5762 43.886 15.3171 51.5388 14.7814 51.5187C13.7669 51.476 12.8239 52.1252 12.2423 52.9427C11.6609 53.7602 11.3881 54.7722 11.1025 55.7508C14.217 62.6827 17.0665 69.6234 20.1813 76.5553C20.3271 76.8164 20.4046 77.1101 20.4065 77.4091C20.3439 77.7195 20.2114 78.0114 20.019 78.2629C18.4916 80.7152 18.5402 83.7995 18.707 86.6817C18.874 89.5638 19.0805 92.6082 17.7917 95.1916C17.4412 95.9008 16.9853 96.55 16.6519 97.2593C15.8712 98.8657 15.589 104.003 16.045 105.729L73.1795 107.365C71.951 103.99 77.4271 62.8796 77.4271 62.8796Z" fill="#EC7125"/>
<path d="M6.16339 76.8627C6.04939 77.6869 6.03791 78.522 6.12922 79.349L6.9481 91.1028C7.02498 92.2106 7.10065 93.3156 7.20468 94.4207C7.40117 96.5652 7.69467 98.6927 8.05896 100.817C8.06718 101.119 8.19481 101.405 8.41382 101.613C8.63284 101.82 8.92535 101.933 9.22717 101.925C12.8319 102.687 16.5562 102.657 20.2351 102.449C25.8488 102.136 40.211 101.543 41.0884 100.404C41.9659 99.2651 41.4546 97.4224 40.3104 96.5012C39.1663 95.58 20.2134 93.3342 20.2134 93.3342C20.3986 91.8675 20.9572 90.4862 21.4872 89.0936C22.4391 86.6237 23.3281 84.0727 23.3452 81.4268C23.3623 78.7809 22.3649 75.9991 20.1963 74.4833C18.4124 73.2389 16.1156 73.0081 13.9418 73.0593C12.3602 73.1047 9.62746 72.726 8.18283 73.3441C7.03963 73.8472 6.37696 75.7439 6.16339 76.8627Z" fill="#FBBEBE"/>
<path d="M77.5279 103.432C78.4767 103.07 79.5226 103.201 80.5398 103.338C83.8141 103.785 87.1366 104.244 90.1714 105.551C91.5962 106.161 92.9527 106.975 93.9159 108.173C94.7701 109.253 95.2693 110.574 95.7425 111.876L96.8369 114.872C97.3021 115.997 97.6229 117.177 97.7915 118.383C98.1335 121.969 95.6799 125.349 92.5939 127.212C89.5078 129.075 85.8747 129.738 82.3353 130.433C78.7959 131.128 75.2427 131.897 71.7179 132.712C70.0738 133.138 68.4057 133.466 66.7226 133.694C62.9497 134.121 59.0061 133.492 55.4212 134.739C53.9964 135.238 52.5972 135.978 51.1193 136.323C50.1369 136.529 49.1437 136.681 48.1443 136.776L41.3596 137.55C39.9799 137.735 38.5909 137.841 37.1993 137.869C34.2359 137.869 31.3207 137.168 28.443 136.467C28.1372 136.413 27.8461 136.295 27.5887 136.122C27.1329 135.763 27.0331 135.128 26.9675 134.553C26.6769 132.007 26.4226 129.458 26.2048 126.906C26.1364 126.077 26.0852 125.18 26.5383 124.483C27.1082 123.629 28.2197 123.36 29.2341 123.195C33.5357 122.492 37.8934 122.19 42.251 122.292C43.9065 120.638 46.6365 120.629 48.8051 119.729C49.6029 119.363 50.3751 118.943 51.1162 118.473C54.9953 116.211 59.3301 114.842 63.8052 114.466C64.6816 114.439 65.5524 114.315 66.4013 114.096C68.0793 113.575 69.61 112.156 71.3338 112.504C71.5474 111.914 71.6956 111.125 72.1881 110.721C72.4322 110.513 72.7351 110.374 72.9603 110.151C73.4362 109.67 73.4789 108.912 73.4076 108.24C73.3362 107.568 73.1766 106.879 73.3505 106.224C73.4228 105.976 73.5293 105.739 73.6669 105.52C74.5187 104.047 75.8096 103.29 77.5279 103.432Z" fill="#2F2E41"/>
<path d="M10.9375 55.9617C10.66 56.2522 10.4448 56.5963 10.3051 56.9729C8.00171 62.1611 6.6412 67.7178 6.28726 73.3828C6.29347 73.659 6.22977 73.9324 6.10206 74.1774C5.97613 74.3405 5.83594 74.492 5.68317 74.6303C5.54997 74.7881 5.44917 74.9706 5.38654 75.1673C5.32391 75.3641 5.30067 75.5712 5.31814 75.7769C5.3356 75.9827 5.39344 76.1829 5.48836 76.3663C5.58327 76.5497 5.71339 76.7126 5.8713 76.8457C5.89719 76.8676 5.92377 76.8885 5.95104 76.9087C6.42119 76.0244 7.54669 75.7353 8.54711 75.6585C13.3371 75.2798 18.0161 77.5069 22.8205 77.3389C22.4815 76.1683 21.9939 75.0434 21.7175 73.8588C20.495 68.5985 23.5441 62.8714 21.6748 57.8047C21.3014 56.7908 20.6775 55.794 19.6944 55.3497C19.2874 55.1856 18.8614 55.073 18.4264 55.0143C17.2125 54.7951 14.7958 53.858 13.6221 54.234C13.1889 54.3736 13.018 54.7807 12.6589 55.0268C12.1134 55.375 11.3897 55.5031 10.9375 55.9617Z" fill="#EC7125"/>
<path d="M77.4613 73.3441C76.0166 72.726 73.2839 73.1047 71.7023 73.0593C69.5285 73.0081 67.2317 73.2389 65.4478 74.4833C63.2792 75.9991 62.2818 78.7809 62.2989 81.4268C62.316 84.0727 63.205 86.6237 64.1569 89.0936C64.6869 90.4862 65.2455 91.8675 65.4307 93.3342C65.4307 93.3342 46.4778 95.58 45.3337 96.5012C44.1896 97.4224 43.6782 99.2651 44.5557 100.404C45.4331 101.543 72.8122 102.687 76.4169 101.925C76.7187 101.933 77.0113 101.82 77.2303 101.613C77.4493 101.405 77.5769 101.119 77.5852 100.817C77.9494 98.6927 78.2429 96.5652 78.4394 94.4207C78.5435 93.3156 78.6191 92.2106 78.696 91.1028L79.5149 79.349C79.6062 78.522 79.5947 77.6869 79.4807 76.8627C79.2672 75.7439 78.6045 73.8472 77.4613 73.3441Z" fill="#FBBEBE"/>
<path d="M72.9853 55.0268C72.6262 54.7807 72.4553 54.3736 72.0221 54.234C70.8484 53.858 68.4317 54.7951 67.2177 55.0143C66.7827 55.073 66.3568 55.1856 65.9497 55.3497C64.9667 55.794 64.3428 56.7908 63.9694 57.8047C62.1 62.8714 65.1492 68.5985 63.9267 73.8588C63.6502 75.0434 63.1627 76.1683 62.8237 77.3389C67.6281 77.5069 72.307 75.2798 77.0971 75.6585C78.0975 75.7353 79.223 76.0244 79.6931 76.9087C79.7204 76.8885 79.747 76.8676 79.7729 76.8457C79.9308 76.7126 80.0609 76.5497 80.1558 76.3663C80.2507 76.1829 80.3086 75.9827 80.326 75.7769C80.3435 75.5712 80.3202 75.3641 80.2576 75.1673C80.195 74.9706 80.0942 74.7881 79.961 74.6303C79.8082 74.492 79.668 74.3405 79.5421 74.1774C79.4144 73.9324 79.3507 73.659 79.3569 73.3828C79.003 67.7178 77.6425 62.1611 75.3391 56.9729C75.1994 56.5963 74.9842 56.2522 74.7066 55.9617C74.2545 55.5031 73.5308 55.375 72.9853 55.0268Z" fill="#EC7125"/>
<path d="M80.9976 132.183L80.1647 138.447L55.5928 138.217L56.8223 128.971L80.9976 132.183Z" fill="#FFB6B6"/>
<path d="M87.2858 131.392L84.5997 151.59L84.3441 151.556C82.2579 151.279 80.3674 150.185 79.0882 148.515C77.8091 146.845 77.2461 144.735 77.5232 142.65L77.5233 142.649L79.1639 130.313L87.2858 131.392Z" fill="#2F2E41"/>
<path d="M23.1898 106.602C23.1898 106.887 22.7426 106.602 22.7017 106.297C22.3883 103.993 20.5587 102.093 18.4273 101.171C16.2959 100.248 13.8679 100.199 11.5598 100.419C8.06923 100.749 4.15086 102.085 2.87434 105.346C2.57229 106.108 -0.257174 112.896 0.018939 114.422C0.762765 118.495 3.54952 121.978 6.92633 124.39C10.3031 126.802 14.2487 128.244 18.1844 129.543C28.5901 132.973 39.2662 135.522 50.0997 137.162C51.8549 137.427 53.6275 137.672 55.3086 138.235C56.813 138.739 58.2208 139.494 59.6913 140.087C63.1108 141.459 66.7897 141.949 70.4341 142.431C71.0553 142.51 71.7677 142.567 72.2265 142.146C72.8193 141.597 72.6232 140.639 72.4544 139.85C71.8359 136.851 72.3549 133.729 73.9107 131.09C74.5209 130.065 75.3141 129.014 75.1988 127.827C75.0621 126.443 73.6828 125.464 72.3092 125.241C70.9357 125.019 69.5395 125.347 68.1599 125.526C67.6871 125.635 67.1917 125.586 66.7494 125.386C66.5444 125.248 66.3586 125.083 66.1966 124.897C65.2465 123.981 64.0305 123.389 62.723 123.206C61.4156 123.024 60.0838 123.259 58.9188 123.88C58.4087 124.165 57.6374 123.53 57.1065 123.291L51.1138 120.579C44.2293 117.467 37.3106 114.339 30.027 112.368C29.4459 112.254 28.8935 112.025 28.4027 111.693C28.0409 111.408 27.7815 111.022 27.4481 110.705C26.7213 110.019 25.709 109.745 24.838 109.258C23.9669 108.771 22.9903 107.579 23.1898 106.602Z" fill="#2F2E41"/>
<path d="M38.703 102.486C41.062 102.486 42.9744 100.575 42.9744 98.2172C42.9744 95.8595 41.062 93.9482 38.703 93.9482C36.344 93.9482 34.4316 95.8595 34.4316 98.2172C34.4316 100.575 36.344 102.486 38.703 102.486Z" fill="#FBBEBE"/>
<path d="M48.161 102.486C50.52 102.486 52.4324 100.575 52.4324 98.2172C52.4324 95.8595 50.52 93.9482 48.161 93.9482C45.802 93.9482 43.8896 95.8595 43.8896 98.2172C43.8896 100.575 45.802 102.486 48.161 102.486Z" fill="#FBBEBE"/>
<path d="M74.527 107.837H15.845C15.1599 107.836 14.503 107.564 14.0186 107.08C13.5341 106.595 13.2616 105.939 13.2607 105.254V69.6733C13.2616 68.9886 13.5341 68.3322 14.0186 67.848C14.503 67.3638 15.1599 67.0915 15.845 67.0907H74.527C75.2121 67.0915 75.8689 67.3638 76.3534 67.848C76.8378 68.3322 77.1104 68.9886 77.1112 69.6733V105.254C77.1104 105.939 76.8378 106.595 76.3534 107.08C75.8689 107.564 75.2121 107.836 74.527 107.837Z" fill="#3F3D56"/>
<path d="M45.0437 89.1726C45.988 89.1726 46.7535 88.4076 46.7535 87.4638C46.7535 86.5201 45.988 85.755 45.0437 85.755C44.0995 85.755 43.334 86.5201 43.334 87.4638C43.334 88.4076 44.0995 89.1726 45.0437 89.1726Z" fill="white"/>
</svg>
