<svg width="444" height="105" viewBox="0 0 444 105" fill="none" xmlns="http://www.w3.org/2000/svg">
<path d="M27.2057 0H440L411.748 82H0L27.2057 0Z" fill="#F4C95D"/>
<path d="M31.2057 10H444L415.748 92H4L31.2057 10Z" fill="#F4C95D" fill-opacity="0.4"/>
<path d="M40.4 30.6H29.2V24H59.7V30.6H48.5V59H40.4V30.6ZM91.1582 52.5V59H64.0582V24H90.5082V30.5H72.1082V38.1H88.3582V44.4H72.1082V52.5H91.1582ZM114.255 59.6C110.689 59.6 107.455 58.8333 104.555 57.3C101.689 55.7333 99.4221 53.5833 97.7555 50.85C96.1221 48.0833 95.3055 44.9667 95.3055 41.5C95.3055 38.0333 96.1221 34.9333 97.7555 32.2C99.4221 29.4333 101.689 27.2833 104.555 25.75C107.455 24.1833 110.705 23.4 114.305 23.4C117.339 23.4 120.072 23.9333 122.505 25C124.972 26.0667 127.039 27.6 128.705 29.6L123.505 34.4C121.139 31.6667 118.205 30.3 114.705 30.3C112.539 30.3 110.605 30.7833 108.905 31.75C107.205 32.6833 105.872 34 104.905 35.7C103.972 37.4 103.505 39.3333 103.505 41.5C103.505 43.6667 103.972 45.6 104.905 47.3C105.872 49 107.205 50.3333 108.905 51.3C110.605 52.2333 112.539 52.7 114.705 52.7C118.205 52.7 121.139 51.3167 123.505 48.55L128.705 53.35C127.039 55.3833 124.972 56.9333 122.505 58C120.039 59.0667 117.289 59.6 114.255 59.6ZM166.275 24V59H159.625L142.175 37.75V59H134.175V24H140.875L158.275 45.25V24H166.275ZM191.506 59.6C187.873 59.6 184.59 58.8167 181.656 57.25C178.756 55.6833 176.473 53.5333 174.806 50.8C173.173 48.0333 172.356 44.9333 172.356 41.5C172.356 38.0667 173.173 34.9833 174.806 32.25C176.473 29.4833 178.756 27.3167 181.656 25.75C184.59 24.1833 187.873 23.4 191.506 23.4C195.14 23.4 198.406 24.1833 201.306 25.75C204.206 27.3167 206.49 29.4833 208.156 32.25C209.823 34.9833 210.656 38.0667 210.656 41.5C210.656 44.9333 209.823 48.0333 208.156 50.8C206.49 53.5333 204.206 55.6833 201.306 57.25C198.406 58.8167 195.14 59.6 191.506 59.6ZM191.506 52.7C193.573 52.7 195.44 52.2333 197.106 51.3C198.773 50.3333 200.073 49 201.006 47.3C201.973 45.6 202.456 43.6667 202.456 41.5C202.456 39.3333 201.973 37.4 201.006 35.7C200.073 34 198.773 32.6833 197.106 31.75C195.44 30.7833 193.573 30.3 191.506 30.3C189.44 30.3 187.573 30.7833 185.906 31.75C184.24 32.6833 182.923 34 181.956 35.7C181.023 37.4 180.556 39.3333 180.556 41.5C180.556 43.6667 181.023 45.6 181.956 47.3C182.923 49 184.24 50.3333 185.906 51.3C187.573 52.2333 189.44 52.7 191.506 52.7ZM216.744 24H224.844V52.4H242.394V59H216.744V24ZM263.284 59.6C259.65 59.6 256.367 58.8167 253.434 57.25C250.534 55.6833 248.25 53.5333 246.584 50.8C244.95 48.0333 244.134 44.9333 244.134 41.5C244.134 38.0667 244.95 34.9833 246.584 32.25C248.25 29.4833 250.534 27.3167 253.434 25.75C256.367 24.1833 259.65 23.4 263.284 23.4C266.917 23.4 270.184 24.1833 273.084 25.75C275.984 27.3167 278.267 29.4833 279.934 32.25C281.6 34.9833 282.434 38.0667 282.434 41.5C282.434 44.9333 281.6 48.0333 279.934 50.8C278.267 53.5333 275.984 55.6833 273.084 57.25C270.184 58.8167 266.917 59.6 263.284 59.6ZM263.284 52.7C265.35 52.7 267.217 52.2333 268.884 51.3C270.55 50.3333 271.85 49 272.784 47.3C273.75 45.6 274.234 43.6667 274.234 41.5C274.234 39.3333 273.75 37.4 272.784 35.7C271.85 34 270.55 32.6833 268.884 31.75C267.217 30.7833 265.35 30.3 263.284 30.3C261.217 30.3 259.35 30.7833 257.684 31.75C256.017 32.6833 254.7 34 253.734 35.7C252.8 37.4 252.334 39.3333 252.334 41.5C252.334 43.6667 252.8 45.6 253.734 47.3C254.7 49 256.017 50.3333 257.684 51.3C259.35 52.2333 261.217 52.7 263.284 52.7ZM312.171 40.95H319.571V55.15C317.671 56.5833 315.471 57.6833 312.971 58.45C310.471 59.2167 307.954 59.6 305.421 59.6C301.788 59.6 298.521 58.8333 295.621 57.3C292.721 55.7333 290.438 53.5833 288.771 50.85C287.138 48.0833 286.321 44.9667 286.321 41.5C286.321 38.0333 287.138 34.9333 288.771 32.2C290.438 29.4333 292.738 27.2833 295.671 25.75C298.604 24.1833 301.904 23.4 305.571 23.4C308.638 23.4 311.421 23.9167 313.921 24.95C316.421 25.9833 318.521 27.4833 320.221 29.45L315.021 34.25C312.521 31.6167 309.504 30.3 305.971 30.3C303.738 30.3 301.754 30.7667 300.021 31.7C298.288 32.6333 296.938 33.95 295.971 35.65C295.004 37.35 294.521 39.3 294.521 41.5C294.521 43.6667 295.004 45.6 295.971 47.3C296.938 49 298.271 50.3333 299.971 51.3C301.704 52.2333 303.671 52.7 305.871 52.7C308.204 52.7 310.304 52.2 312.171 51.2V40.95ZM327.095 24H335.195V59H327.095V24ZM366.552 51.5H350.302L347.202 59H338.902L354.502 24H362.502L378.152 59H369.652L366.552 51.5ZM364.002 45.35L358.452 31.95L352.902 45.35H364.002ZM393.283 59.6C390.516 59.6 387.833 59.2333 385.233 58.5C382.666 57.7333 380.599 56.75 379.033 55.55L381.783 49.45C383.283 50.55 385.066 51.4333 387.133 52.1C389.199 52.7667 391.266 53.1 393.333 53.1C395.633 53.1 397.333 52.7667 398.433 52.1C399.533 51.4 400.083 50.4833 400.083 49.35C400.083 48.5167 399.749 47.8333 399.083 47.3C398.449 46.7333 397.616 46.2833 396.583 45.95C395.583 45.6167 394.216 45.25 392.483 44.85C389.816 44.2167 387.633 43.5833 385.933 42.95C384.233 42.3167 382.766 41.3 381.533 39.9C380.333 38.5 379.733 36.6333 379.733 34.3C379.733 32.2667 380.283 30.4333 381.383 28.8C382.483 27.1333 384.133 25.8167 386.333 24.85C388.566 23.8833 391.283 23.4 394.483 23.4C396.716 23.4 398.899 23.6667 401.033 24.2C403.166 24.7333 405.033 25.5 406.633 26.5L404.133 32.65C400.899 30.8167 397.666 29.9 394.433 29.9C392.166 29.9 390.483 30.2667 389.383 31C388.316 31.7333 387.783 32.7 387.783 33.9C387.783 35.1 388.399 36 389.633 36.6C390.899 37.1667 392.816 37.7333 395.383 38.3C398.049 38.9333 400.233 39.5667 401.933 40.2C403.633 40.8333 405.083 41.8333 406.283 43.2C407.516 44.5667 408.133 46.4167 408.133 48.75C408.133 50.75 407.566 52.5833 406.433 54.25C405.333 55.8833 403.666 57.1833 401.433 58.15C399.199 59.1167 396.483 59.6 393.283 59.6Z" fill="white"/>
</svg>
